#N canvas 598 366 778 422 10;
#X obj 431 48 inlet;
#X obj 558 46 inlet;
#X obj 287 330 outlet~;
#X obj 431 70 unpack f f;
#X obj 74 111 mtof;
#X obj 498 103 / 127;
#X obj 287 298 *~;
#X obj 558 68 unpack f f;
#X obj 498 140 pack f f f;
#X obj 498 198 vline~;
#X msg 498 171 \$1 \$2 \, 0 \$3 \$2;
#X obj 498 220 *~;
#X obj 651 35 loadbang;
#X obj 651 67 f \$2;
#X obj 690 67 f \$3;
#X obj 11 134 noise~;
#X obj 177 133 mtof;
#X obj 177 110 + 7.2;
#X obj 266 133 mtof;
#X obj 266 110 + 27.2;
#X obj 356 132 mtof;
#X obj 356 109 + 27.2;
#X obj 319 198 bp~ 1000 150;
#X obj 228 199 bp~ 1000 90;
#X obj 140 200 bp~ 1000 50;
#X obj 44 199 bp~ 1000 2;
#X connect 0 0 3 0;
#X connect 1 0 7 0;
#X connect 3 0 4 0;
#X connect 3 0 17 0;
#X connect 3 0 19 0;
#X connect 3 0 21 0;
#X connect 3 1 5 0;
#X connect 4 0 25 1;
#X connect 5 0 8 0;
#X connect 6 0 2 0;
#X connect 7 0 8 1;
#X connect 7 1 8 2;
#X connect 8 0 10 0;
#X connect 9 0 11 0;
#X connect 9 0 11 1;
#X connect 10 0 9 0;
#X connect 11 0 6 1;
#X connect 12 0 13 0;
#X connect 12 0 14 0;
#X connect 13 0 8 1;
#X connect 14 0 8 2;
#X connect 15 0 22 0;
#X connect 15 0 23 0;
#X connect 15 0 24 0;
#X connect 15 0 25 0;
#X connect 16 0 24 1;
#X connect 17 0 16 0;
#X connect 18 0 23 1;
#X connect 19 0 18 0;
#X connect 20 0 22 1;
#X connect 21 0 20 0;
#X connect 22 0 6 0;
#X connect 23 0 6 0;
#X connect 24 0 6 0;
#X connect 25 0 6 0;
