#N canvas 604 358 450 422 10;
#X obj 107 32 inlet;
#X obj 234 30 inlet;
#X obj 108 301 outlet~;
#X obj 107 54 unpack f f;
#X obj 107 76 mtof;
#X obj 107 105 osc~;
#X obj 174 87 / 127;
#X obj 108 269 *~;
#X obj 234 52 unpack f f;
#X obj 174 124 pack f f f;
#X obj 174 182 vline~;
#X msg 174 155 \$1 \$2 \, 0 \$3 \$2;
#X obj 174 204 *~;
#X obj 327 19 loadbang;
#X obj 327 51 f \$2;
#X obj 366 51 f \$3;
#X connect 0 0 3 0;
#X connect 1 0 8 0;
#X connect 3 0 4 0;
#X connect 3 1 6 0;
#X connect 4 0 5 0;
#X connect 5 0 7 0;
#X connect 6 0 9 0;
#X connect 7 0 2 0;
#X connect 8 0 9 1;
#X connect 8 1 9 2;
#X connect 9 0 11 0;
#X connect 10 0 12 0;
#X connect 10 0 12 1;
#X connect 11 0 10 0;
#X connect 12 0 7 1;
#X connect 13 0 14 0;
#X connect 13 0 15 0;
#X connect 14 0 9 1;
#X connect 15 0 9 2;
