#N canvas 66 79 450 300 10;
#X obj 180 271 dac~;
#X obj 186 42 noise~;
#X obj 111 221 lop~ 1000;
#X obj 235 218 bp~ 3000 10;
#X obj 188 176 *~ 0.8;
#X obj 202 70 loadbang;
#X obj 202 114 line~;
#X obj 187 152 *~;
#X msg 202 92 1 \, 0 1500;
#X connect 1 0 7 0;
#X connect 2 0 0 0;
#X connect 3 0 0 1;
#X connect 4 0 2 0;
#X connect 4 0 3 0;
#X connect 5 0 8 0;
#X connect 6 0 7 1;
#X connect 7 0 4 0;
#X connect 8 0 6 0;
