#N canvas 485 254 635 342 10;
#X obj 143 228 dac~, f 6;
#X obj 142 16 adc~, f 6;
#X obj 143 133 bp~ 1000 5;
#X obj 171 78 r freq;
#X obj 200 108 r q;
#X connect 1 0 2 0;
#X connect 2 0 0 0;
#X connect 3 0 2 1;
#X connect 4 0 2 2;
